<?xml version="1.0" standalone="no"?>
<!DOCTYPE svg PUBLIC "-//W3C//DTD SVG 20010904//EN"
 "http://www.w3.org/TR/2001/REC-SVG-20010904/DTD/svg10.dtd">
<svg version="1.0" xmlns="http://www.w3.org/2000/svg"
 width="260.000000pt" height="260.000000pt" viewBox="0 0 260.000000 260.000000"
 preserveAspectRatio="xMidYMid meet">
<metadata>
Created by potrace 1.11, written by Peter Selinger 2001-2013
</metadata>
<g transform="translate(0.000000,260.000000) scale(0.100000,-0.100000)"
fill="#000000" stroke="none">
<path d="M819 2464 c-21 -9 -52 -36 -75 -66 l-39 -52 -3 -954 -2 -953 32 -55
c44 -73 95 -98 189 -92 74 4 120 30 158 91 18 30 20 50 21 215 1 100 4 182 6
182 9 0 59 -34 84 -56 14 -12 50 -32 80 -44 30 -11 73 -29 95 -40 68 -32 179
-50 309 -50 160 0 214 15 272 73 42 43 44 47 44 105 0 55 -3 63 -31 89 -17 15
-39 36 -49 47 -28 28 -122 46 -240 46 -99 0 -180 13 -240 39 -53 23 -131 88
-162 136 -28 44 -32 58 -33 120 0 62 3 75 32 119 49 75 104 115 213 157 41 15
92 23 200 29 175 10 208 19 265 74 43 40 45 45 45 97 -1 30 -6 64 -13 75 -22
39 -75 74 -140 95 -137 43 -395 8 -561 -76 -100 -51 -156 -85 -156 -96 0 -5
-4 -9 -10 -9 -6 0 -10 127 -12 329 l-3 328 -40 45 c-59 66 -152 87 -236 52z"/>
</g>
</svg>
